<svg width="260" height="150" viewBox="0 0 260 150" fill="none" xmlns="http://www.w3.org/2000/svg">
<path d="M9.66281 18V1.224H18.7348V3.648L11.1508 3.576L12.4228 2.328L12.3268 8.784L11.1028 8.352H17.9668V10.704H11.1028L12.3508 10.2L12.4468 18H9.66281ZM27.6589 18.336C26.7629 18.336 25.9149 18.208 25.1149 17.952C24.3149 17.696 23.6029 17.248 22.9789 16.608C22.3709 15.968 21.8909 15.08 21.5389 13.944C21.2029 12.808 21.0349 11.352 21.0349 9.576C21.0349 7.816 21.2029 6.376 21.5389 5.256C21.8909 4.12 22.3709 3.24 22.9789 2.616C23.6029 1.976 24.3149 1.536 25.1149 1.296C25.9149 1.04 26.7629 0.912 27.6589 0.912C28.5709 0.912 29.4189 1.04 30.2029 1.296C31.0029 1.536 31.7069 1.976 32.3149 2.616C32.9389 3.24 33.4189 4.12 33.7549 5.256C34.1069 6.376 34.2829 7.816 34.2829 9.576C34.2829 11.352 34.1069 12.808 33.7549 13.944C33.4189 15.08 32.9389 15.968 32.3149 16.608C31.7069 17.248 31.0029 17.696 30.2029 17.952C29.4189 18.208 28.5709 18.336 27.6589 18.336ZM27.6589 15.84C28.2989 15.84 28.8429 15.768 29.2909 15.624C29.7549 15.48 30.1389 15.192 30.4429 14.76C30.7469 14.328 30.9709 13.704 31.1149 12.888C31.2589 12.072 31.3309 10.992 31.3309 9.648C31.3309 8.288 31.2589 7.2 31.1149 6.384C30.9869 5.552 30.7709 4.92 30.4669 4.488C30.1789 4.056 29.7949 3.768 29.3149 3.624C28.8509 3.48 28.2989 3.408 27.6589 3.408C27.0029 3.408 26.4429 3.48 25.9789 3.624C25.5149 3.768 25.1309 4.056 24.8269 4.488C24.5389 4.92 24.3229 5.552 24.1789 6.384C24.0349 7.2 23.9629 8.288 23.9629 9.648C23.9629 10.992 24.0349 12.072 24.1789 12.888C24.3389 13.704 24.5629 14.328 24.8509 14.76C25.1549 15.192 25.5389 15.48 26.0029 15.624C26.4669 15.768 27.0189 15.84 27.6589 15.84ZM43.8776 18.336C42.9816 18.336 42.1336 18.208 41.3336 17.952C40.5336 17.696 39.8216 17.248 39.1976 16.608C38.5896 15.968 38.1096 15.08 37.7576 13.944C37.4216 12.808 37.2536 11.352 37.2536 9.576C37.2536 7.816 37.4216 6.376 37.7576 5.256C38.1096 4.12 38.5896 3.24 39.1976 2.616C39.8216 1.976 40.5336 1.536 41.3336 1.296C42.1336 1.04 42.9816 0.912 43.8776 0.912C44.7896 0.912 45.6376 1.04 46.4216 1.296C47.2216 1.536 47.9256 1.976 48.5336 2.616C49.1576 3.24 49.6376 4.12 49.9736 5.256C50.3256 6.376 50.5016 7.816 50.5016 9.576C50.5016 11.352 50.3256 12.808 49.9736 13.944C49.6376 15.08 49.1576 15.968 48.5336 16.608C47.9256 17.248 47.2216 17.696 46.4216 17.952C45.6376 18.208 44.7896 18.336 43.8776 18.336ZM43.8776 15.84C44.5176 15.84 45.0616 15.768 45.5096 15.624C45.9736 15.48 46.3576 15.192 46.6616 14.76C46.9656 14.328 47.1896 13.704 47.3336 12.888C47.4776 12.072 47.5496 10.992 47.5496 9.648C47.5496 8.288 47.4776 7.2 47.3336 6.384C47.2056 5.552 46.9896 4.92 46.6856 4.488C46.3976 4.056 46.0136 3.768 45.5336 3.624C45.0696 3.48 44.5176 3.408 43.8776 3.408C43.2216 3.408 42.6616 3.48 42.1976 3.624C41.7336 3.768 41.3496 4.056 41.0456 4.488C40.7576 4.92 40.5416 5.552 40.3976 6.384C40.2536 7.2 40.1816 8.288 40.1816 9.648C40.1816 10.992 40.2536 12.072 40.3976 12.888C40.5576 13.704 40.7816 14.328 41.0696 14.76C41.3736 15.192 41.7576 15.48 42.2216 15.624C42.6856 15.768 43.2376 15.84 43.8776 15.84ZM59.4484 18.336C59.0164 18.336 58.5284 18.32 57.9844 18.288C57.4564 18.272 56.9364 18.24 56.4244 18.192C55.9124 18.16 55.4564 18.12 55.0564 18.072C54.6724 18.04 54.4084 18.016 54.2644 18V1.224C54.4084 1.208 54.6724 1.184 55.0564 1.152C55.4564 1.12 55.9284 1.088 56.4724 1.056C57.0164 1.008 57.5684 0.975999 58.1284 0.959999C58.7044 0.927999 59.2324 0.912 59.7124 0.912C61.0404 0.912 62.1204 1.136 62.9524 1.584C63.8004 2.032 64.4484 2.656 64.8964 3.456C65.3444 4.24 65.6564 5.144 65.8324 6.168C66.0084 7.192 66.0964 8.272 66.0964 9.408C66.0964 11.632 65.8084 13.4 65.2324 14.712C64.6724 16.008 63.8884 16.936 62.8804 17.496C61.8884 18.056 60.7444 18.336 59.4484 18.336ZM59.4004 15.912C60.1204 15.912 60.6644 15.856 61.0324 15.744C61.4164 15.632 61.6964 15.496 61.8724 15.336C62.0804 15.128 62.2724 14.808 62.4484 14.376C62.6404 13.944 62.7924 13.32 62.9044 12.504C63.0324 11.688 63.0964 10.616 63.0964 9.288C63.0964 7.928 63.0004 6.752 62.8084 5.76C62.6324 4.768 62.3364 4.104 61.9204 3.768C61.7924 3.656 61.5684 3.56 61.2484 3.48C60.9284 3.384 60.4324 3.336 59.7604 3.336C59.0564 3.336 58.4564 3.36 57.9604 3.408C57.4644 3.456 57.0244 3.504 56.6404 3.552L57.0724 2.232V16.968L56.6164 15.648C57.0164 15.696 57.4164 15.752 57.8164 15.816C58.2324 15.88 58.7604 15.912 59.4004 15.912ZM75.8034 18V1.224H78.6114L78.5394 9.168L77.2914 8.256H86.1474L84.8994 9.168L84.8274 1.224H87.6354V18H84.8274L84.8994 9.768L86.1474 10.68H77.2914L78.5394 9.768L78.6114 18H75.8034ZM94.9463 18L95.0183 11.856L90.0743 1.224H93.0983L96.2903 9.312H96.4343L99.6263 1.224H102.65L97.7063 11.856L97.7783 18H94.9463ZM110.23 18.312C109.35 18.312 108.502 18.2 107.686 17.976C106.886 17.736 106.174 17.304 105.55 16.68C104.942 16.056 104.462 15.168 104.11 14.016C103.758 12.864 103.582 11.376 103.582 9.552C103.582 7.76 103.75 6.304 104.086 5.184C104.422 4.048 104.894 3.168 105.502 2.544C106.126 1.92 106.87 1.496 107.734 1.272C108.598 1.032 109.55 0.912 110.59 0.912C111.118 0.912 111.67 0.944 112.246 1.008C112.838 1.056 113.398 1.12 113.926 1.2C114.454 1.28 114.87 1.352 115.174 1.416L114.862 3.744C114.398 3.696 113.782 3.632 113.014 3.552C112.262 3.456 111.406 3.408 110.446 3.408C109.678 3.408 109.07 3.448 108.622 3.528C108.19 3.608 107.862 3.76 107.638 3.984C107.366 4.24 107.11 4.808 106.87 5.688C106.646 6.552 106.534 7.84 106.534 9.552C106.534 10.848 106.606 11.888 106.75 12.672C106.894 13.44 107.054 14.024 107.23 14.424C107.406 14.808 107.558 15.072 107.686 15.216C107.862 15.376 108.15 15.528 108.55 15.672C108.966 15.816 109.574 15.888 110.374 15.888C110.838 15.888 111.254 15.864 111.622 15.816C111.99 15.768 112.294 15.704 112.534 15.624V9.888L113.782 11.208L110.038 10.992V8.952H115.246V17.304C115.246 17.304 115.03 17.392 114.598 17.568C114.166 17.728 113.566 17.888 112.798 18.048C112.046 18.224 111.19 18.312 110.23 18.312ZM119.514 18.024L119.61 10.296L119.514 1.224H122.346L122.25 8.664L122.346 18L119.514 18.024ZM126.897 18V1.224H135.969V3.648L128.457 3.576L129.729 2.328L129.561 9.384L128.337 8.304H135.369V10.656H128.337L129.561 9.528L129.729 16.872L128.457 15.624L135.969 15.576V18H126.897ZM139.647 18V1.224H143.319L149.391 14.616H149.487L149.151 1.224H151.815V18H148.143L142.095 4.608H141.975L142.311 18H139.647ZM156.358 18V1.224H165.43V3.648L157.918 3.576L159.19 2.328L159.022 9.384L157.798 8.304H164.83V10.656H157.798L159.022 9.528L159.19 16.872L157.918 15.624L165.43 15.576V18H156.358ZM175.038 18L175.158 10.128L175.062 1.248C175.206 1.232 175.494 1.208 175.926 1.176C176.358 1.128 176.862 1.088 177.438 1.056C178.014 1.024 178.598 0.992 179.19 0.959999C179.798 0.927999 180.35 0.912 180.846 0.912C182.03 0.912 183.054 1.088 183.918 1.44C184.798 1.792 185.47 2.36 185.934 3.144C186.398 3.928 186.63 4.984 186.63 6.312C186.63 7.672 186.334 8.768 185.742 9.6C185.15 10.416 184.286 10.976 183.15 11.28V11.4L186.87 18H183.678L180.51 11.664L177.87 11.568V18H175.038ZM181.014 9.384C182.102 9.384 182.822 9.136 183.174 8.64C183.526 8.128 183.702 7.344 183.702 6.288C183.702 5.392 183.63 4.728 183.486 4.296C183.342 3.864 183.15 3.576 182.91 3.432C182.75 3.32 182.502 3.24 182.166 3.192C181.846 3.144 181.478 3.12 181.062 3.12C180.406 3.12 179.798 3.144 179.238 3.192C178.694 3.24 178.238 3.288 177.87 3.336L177.846 9.168C178.358 9.232 178.894 9.288 179.454 9.336C180.014 9.368 180.534 9.384 181.014 9.384ZM188.6 18L193.184 1.224H196.928L201.512 18H198.632L197.336 12.84L198.848 13.896H191.288L192.752 12.84L191.48 18H188.6ZM192.752 12.744L191.816 11.472H198.296L197.36 12.744L194.84 2.568L196.376 3.792H193.736L195.272 2.568L192.752 12.744ZM205.418 18L205.466 3.576L200.786 3.648V1.224H212.906V3.648L208.154 3.576L208.226 18H205.418ZM215.046 18.024L215.142 10.296L215.046 1.224H217.878L217.782 8.664L217.878 18L215.046 18.024ZM222.428 18V1.224H226.1L232.172 14.616H232.268L231.932 1.224H234.596V18H230.924L224.876 4.608H224.756L225.092 18H222.428ZM244.995 18.312C244.115 18.312 243.267 18.2 242.451 17.976C241.651 17.736 240.939 17.304 240.315 16.68C239.707 16.056 239.227 15.168 238.875 14.016C238.523 12.864 238.347 11.376 238.347 9.552C238.347 7.76 238.515 6.304 238.851 5.184C239.187 4.048 239.659 3.168 240.267 2.544C240.891 1.92 241.635 1.496 242.499 1.272C243.363 1.032 244.315 0.912 245.355 0.912C245.883 0.912 246.435 0.944 247.011 1.008C247.603 1.056 248.163 1.12 248.691 1.2C249.219 1.28 249.635 1.352 249.939 1.416L249.627 3.744C249.163 3.696 248.547 3.632 247.779 3.552C247.027 3.456 246.171 3.408 245.211 3.408C244.443 3.408 243.835 3.448 243.387 3.528C242.955 3.608 242.627 3.76 242.403 3.984C242.131 4.24 241.875 4.808 241.635 5.688C241.411 6.552 241.299 7.84 241.299 9.552C241.299 10.848 241.371 11.888 241.515 12.672C241.659 13.44 241.819 14.024 241.995 14.424C242.171 14.808 242.323 15.072 242.451 15.216C242.627 15.376 242.915 15.528 243.315 15.672C243.731 15.816 244.339 15.888 245.139 15.888C245.603 15.888 246.019 15.864 246.387 15.816C246.755 15.768 247.059 15.704 247.299 15.624V9.888L248.547 11.208L244.803 10.992V8.952H250.011V17.304C250.011 17.304 249.795 17.392 249.363 17.568C248.931 17.728 248.331 17.888 247.563 18.048C246.811 18.224 245.955 18.312 244.995 18.312ZM133.914 138L129.354 121.224H132.306L135.738 135.48H135.882L139.314 121.224H142.242L137.706 138H133.914ZM144.241 138V121.224H153.313V123.648L145.801 123.576L147.073 122.328L146.905 129.384L145.681 128.304H152.713V130.656H145.681L146.905 129.528L147.073 136.872L145.801 135.624L153.313 135.576V138H144.241ZM156.991 138L157.111 130.128L157.015 121.248C157.159 121.232 157.447 121.208 157.879 121.176C158.311 121.128 158.815 121.088 159.391 121.056C159.967 121.024 160.551 120.992 161.143 120.96C161.751 120.928 162.303 120.912 162.799 120.912C163.983 120.912 165.007 121.088 165.871 121.44C166.751 121.792 167.423 122.36 167.887 123.144C168.351 123.928 168.583 124.984 168.583 126.312C168.583 127.672 168.287 128.768 167.695 129.6C167.103 130.416 166.239 130.976 165.103 131.28V131.4L168.823 138H165.631L162.463 131.664L159.823 131.568V138H156.991ZM162.967 129.384C164.055 129.384 164.775 129.136 165.127 128.64C165.479 128.128 165.655 127.344 165.655 126.288C165.655 125.392 165.583 124.728 165.439 124.296C165.295 123.864 165.103 123.576 164.863 123.432C164.703 123.32 164.455 123.24 164.119 123.192C163.799 123.144 163.431 123.12 163.015 123.12C162.359 123.12 161.751 123.144 161.191 123.192C160.647 123.24 160.191 123.288 159.823 123.336L159.799 129.168C160.311 129.232 160.847 129.288 161.407 129.336C161.967 129.368 162.487 129.384 162.967 129.384ZM174.985 138L175.057 131.856L170.113 121.224H173.137L176.329 129.312H176.473L179.665 121.224H182.689L177.745 131.856L177.817 138H174.985ZM196.949 138.312C196.069 138.312 195.221 138.2 194.405 137.976C193.605 137.736 192.893 137.304 192.269 136.68C191.661 136.056 191.181 135.168 190.829 134.016C190.477 132.864 190.301 131.376 190.301 129.552C190.301 127.76 190.469 126.304 190.805 125.184C191.141 124.048 191.613 123.168 192.221 122.544C192.845 121.92 193.589 121.496 194.453 121.272C195.317 121.032 196.269 120.912 197.309 120.912C197.837 120.912 198.389 120.944 198.965 121.008C199.557 121.056 200.117 121.12 200.645 121.2C201.173 121.28 201.589 121.352 201.893 121.416L201.581 123.744C201.117 123.696 200.501 123.632 199.733 123.552C198.981 123.456 198.125 123.408 197.165 123.408C196.397 123.408 195.789 123.448 195.341 123.528C194.909 123.608 194.581 123.76 194.357 123.984C194.085 124.24 193.829 124.808 193.589 125.688C193.365 126.552 193.253 127.84 193.253 129.552C193.253 130.848 193.325 131.888 193.469 132.672C193.613 133.44 193.773 134.024 193.949 134.424C194.125 134.808 194.277 135.072 194.405 135.216C194.581 135.376 194.869 135.528 195.269 135.672C195.685 135.816 196.293 135.888 197.093 135.888C197.557 135.888 197.973 135.864 198.341 135.816C198.709 135.768 199.013 135.704 199.253 135.624V129.888L200.501 131.208L196.757 130.992V128.952H201.965V137.304C201.965 137.304 201.749 137.392 201.317 137.568C200.885 137.728 200.285 137.888 199.517 138.048C198.765 138.224 197.909 138.312 196.949 138.312ZM212.065 138.336C211.169 138.336 210.321 138.208 209.521 137.952C208.721 137.696 208.009 137.248 207.385 136.608C206.777 135.968 206.297 135.08 205.945 133.944C205.609 132.808 205.441 131.352 205.441 129.576C205.441 127.816 205.609 126.376 205.945 125.256C206.297 124.12 206.777 123.24 207.385 122.616C208.009 121.976 208.721 121.536 209.521 121.296C210.321 121.04 211.169 120.912 212.065 120.912C212.977 120.912 213.825 121.04 214.609 121.296C215.409 121.536 216.113 121.976 216.721 122.616C217.345 123.24 217.825 124.12 218.161 125.256C218.513 126.376 218.689 127.816 218.689 129.576C218.689 131.352 218.513 132.808 218.161 133.944C217.825 135.08 217.345 135.968 216.721 136.608C216.113 137.248 215.409 137.696 214.609 137.952C213.825 138.208 212.977 138.336 212.065 138.336ZM212.065 135.84C212.705 135.84 213.249 135.768 213.697 135.624C214.161 135.48 214.545 135.192 214.849 134.76C215.153 134.328 215.377 133.704 215.521 132.888C215.665 132.072 215.737 130.992 215.737 129.648C215.737 128.288 215.665 127.2 215.521 126.384C215.393 125.552 215.177 124.92 214.873 124.488C214.585 124.056 214.201 123.768 213.721 123.624C213.257 123.48 212.705 123.408 212.065 123.408C211.409 123.408 210.849 123.48 210.385 123.624C209.921 123.768 209.537 124.056 209.233 124.488C208.945 124.92 208.729 125.552 208.585 126.384C208.441 127.2 208.369 128.288 208.369 129.648C208.369 130.992 208.441 132.072 208.585 132.888C208.745 133.704 208.969 134.328 209.257 134.76C209.561 135.192 209.945 135.48 210.409 135.624C210.873 135.768 211.425 135.84 212.065 135.84ZM228.284 138.336C227.388 138.336 226.54 138.208 225.74 137.952C224.94 137.696 224.228 137.248 223.604 136.608C222.996 135.968 222.516 135.08 222.164 133.944C221.828 132.808 221.66 131.352 221.66 129.576C221.66 127.816 221.828 126.376 222.164 125.256C222.516 124.12 222.996 123.24 223.604 122.616C224.228 121.976 224.94 121.536 225.74 121.296C226.54 121.04 227.388 120.912 228.284 120.912C229.196 120.912 230.044 121.04 230.828 121.296C231.628 121.536 232.332 121.976 232.94 122.616C233.564 123.24 234.044 124.12 234.38 125.256C234.732 126.376 234.908 127.816 234.908 129.576C234.908 131.352 234.732 132.808 234.38 133.944C234.044 135.08 233.564 135.968 232.94 136.608C232.332 137.248 231.628 137.696 230.828 137.952C230.044 138.208 229.196 138.336 228.284 138.336ZM228.284 135.84C228.924 135.84 229.468 135.768 229.916 135.624C230.38 135.48 230.764 135.192 231.068 134.76C231.372 134.328 231.596 133.704 231.74 132.888C231.884 132.072 231.956 130.992 231.956 129.648C231.956 128.288 231.884 127.2 231.74 126.384C231.612 125.552 231.396 124.92 231.092 124.488C230.804 124.056 230.42 123.768 229.94 123.624C229.476 123.48 228.924 123.408 228.284 123.408C227.628 123.408 227.068 123.48 226.604 123.624C226.14 123.768 225.756 124.056 225.452 124.488C225.164 124.92 224.948 125.552 224.804 126.384C224.66 127.2 224.588 128.288 224.588 129.648C224.588 130.992 224.66 132.072 224.804 132.888C224.964 133.704 225.188 134.328 225.476 134.76C225.78 135.192 226.164 135.48 226.628 135.624C227.092 135.768 227.644 135.84 228.284 135.84ZM243.855 138.336C243.423 138.336 242.935 138.32 242.391 138.288C241.863 138.272 241.343 138.24 240.831 138.192C240.319 138.16 239.863 138.12 239.463 138.072C239.079 138.04 238.815 138.016 238.671 138V121.224C238.815 121.208 239.079 121.184 239.463 121.152C239.863 121.12 240.335 121.088 240.879 121.056C241.423 121.008 241.975 120.976 242.535 120.96C243.111 120.928 243.639 120.912 244.119 120.912C245.447 120.912 246.527 121.136 247.359 121.584C248.207 122.032 248.855 122.656 249.303 123.456C249.751 124.24 250.063 125.144 250.239 126.168C250.415 127.192 250.503 128.272 250.503 129.408C250.503 131.632 250.215 133.4 249.639 134.712C249.079 136.008 248.295 136.936 247.287 137.496C246.295 138.056 245.151 138.336 243.855 138.336ZM243.807 135.912C244.527 135.912 245.071 135.856 245.439 135.744C245.823 135.632 246.103 135.496 246.279 135.336C246.487 135.128 246.679 134.808 246.855 134.376C247.047 133.944 247.199 133.32 247.311 132.504C247.439 131.688 247.503 130.616 247.503 129.288C247.503 127.928 247.407 126.752 247.215 125.76C247.039 124.768 246.743 124.104 246.327 123.768C246.199 123.656 245.975 123.56 245.655 123.48C245.335 123.384 244.839 123.336 244.167 123.336C243.463 123.336 242.863 123.36 242.367 123.408C241.871 123.456 241.431 123.504 241.047 123.552L241.479 122.232V136.968L241.023 135.648C241.423 135.696 241.823 135.752 242.223 135.816C242.639 135.88 243.167 135.912 243.807 135.912Z" fill="white"/>
<path d="M130 49L134.49 62.8197H149.021L137.265 71.3607L141.756 85.1803L130 76.6393L118.244 85.1803L122.735 71.3607L110.979 62.8197H125.51L130 49Z" fill="#F4841D"/>
<path d="M75 49L79.4903 62.8197H94.0211L82.2654 71.3607L86.7557 85.1803L75 76.6393L63.2443 85.1803L67.7346 71.3607L55.9789 62.8197H70.5097L75 49Z" fill="#F4841D"/>
<path d="M20 49L24.4903 62.8197H39.0211L27.2654 71.3607L31.7557 85.1803L20 76.6393L8.2443 85.1803L12.7346 71.3607L0.97887 62.8197H15.5097L20 49Z" fill="#F4841D"/>
<path d="M185 49L189.49 62.8197H204.021L192.265 71.3607L196.756 85.1803L185 76.6393L173.244 85.1803L177.735 71.3607L165.979 62.8197H180.51L185 49Z" fill="#F4841D"/>
<path d="M240 49L244.49 62.8197H259.021L247.265 71.3607L251.756 85.1803L240 76.6393L228.244 85.1803L232.735 71.3607L220.979 62.8197H235.51L240 49Z" fill="#F4841D"/>
</svg>