<svg width="38" height="41" viewBox="0 0 38 41" fill="#000" xmlns="http://www.w3.org/2000/svg">
<path d="M18.9949 13.8615C15.5061 13.8615 12.659 16.8585 12.659 20.531C12.659 24.2035 15.5061 27.2005 18.9949 27.2005C22.4837 27.2005 25.3308 24.2035 25.3308 20.531C25.3308 16.8585 22.4837 13.8615 18.9949 13.8615ZM37.9979 20.531C37.9979 17.7691 38.0216 15.0323 37.8743 12.2754C37.727 9.07326 37.033 6.23134 34.8085 3.88976C32.5793 1.54318 29.8843 0.817687 26.8423 0.662582C24.2186 0.507477 21.6186 0.532494 18.9996 0.532494C16.3759 0.532494 13.776 0.507477 11.157 0.662582C8.11499 0.817687 5.41522 1.54818 3.19076 3.88976C0.961545 6.23635 0.272342 9.07326 0.124995 12.2754C-0.0223519 15.0373 0.00141379 17.7741 0.00141379 20.531C0.00141379 23.2879 -0.0223519 26.0297 0.124995 28.7866C0.272342 31.9887 0.966298 34.8307 3.19076 37.1722C5.41997 39.5188 8.11499 40.2443 11.157 40.3994C13.7807 40.5545 16.3807 40.5295 18.9996 40.5295C21.6234 40.5295 24.2233 40.5545 26.8423 40.3994C29.8843 40.2443 32.5841 39.5138 34.8085 37.1722C37.0378 34.8257 37.727 31.9887 37.8743 28.7866C38.0264 26.0297 37.9979 23.2929 37.9979 20.531ZM18.9949 30.7929C13.6001 30.7929 9.24624 26.2098 9.24624 20.531C9.24624 14.8522 13.6001 10.2691 18.9949 10.2691C24.3897 10.2691 28.7435 14.8522 28.7435 20.531C28.7435 26.2098 24.3897 30.7929 18.9949 30.7929ZM29.1428 12.2454C27.8832 12.2454 26.8661 11.1747 26.8661 9.84879C26.8661 8.52289 27.8832 7.45217 29.1428 7.45217C30.4024 7.45217 31.4196 8.52289 31.4196 9.84879C31.4199 10.1636 31.3613 10.4755 31.247 10.7664C31.1327 11.0574 30.965 11.3217 30.7535 11.5443C30.5421 11.767 30.2909 11.9435 30.0145 12.0638C29.7381 12.1841 29.4419 12.2458 29.1428 12.2454Z" fill="#000"/>
</svg>
