<svg width="12" height="19" viewBox="0 0 12 19" fill="none" xmlns="http://www.w3.org/2000/svg">
<path d="M4.53409 12.8693V12.6477C4.53977 11.6193 4.63636 10.8011 4.82386 10.1932C5.01705 9.58523 5.28977 9.09659 5.64205 8.72727C5.99432 8.35227 6.4233 8.00852 6.92898 7.69602C7.27557 7.48011 7.58523 7.24432 7.85795 6.98864C8.13636 6.72727 8.35511 6.4375 8.5142 6.11932C8.6733 5.79545 8.75284 5.43466 8.75284 5.03693C8.75284 4.58807 8.64773 4.19886 8.4375 3.86932C8.22727 3.53977 7.94318 3.28409 7.58523 3.10227C7.23295 2.92045 6.83807 2.82954 6.40057 2.82954C5.99716 2.82954 5.61364 2.91761 5.25 3.09375C4.89205 3.2642 4.59375 3.52557 4.35511 3.87784C4.12216 4.22443 3.99148 4.66477 3.96307 5.19886H0.928977C0.957386 4.11932 1.21875 3.21591 1.71307 2.48864C2.21307 1.76136 2.87216 1.21591 3.69034 0.852272C4.5142 0.488636 5.4233 0.306818 6.41761 0.306818C7.50284 0.306818 8.45739 0.497159 9.28125 0.877841C10.1108 1.25852 10.7557 1.80114 11.2159 2.50568C11.6818 3.20455 11.9148 4.03409 11.9148 4.99432C11.9148 5.64204 11.8097 6.22159 11.5994 6.73295C11.3949 7.24432 11.1023 7.69886 10.7216 8.09659C10.3409 8.49432 9.8892 8.84943 9.36648 9.16193C8.90625 9.44602 8.52841 9.74148 8.23295 10.0483C7.94318 10.3551 7.72727 10.7159 7.58523 11.1307C7.44886 11.5398 7.37784 12.0455 7.37216 12.6477V12.8693H4.53409ZM6.01705 18.1875C5.50568 18.1875 5.06534 18.0057 4.69602 17.642C4.3267 17.2784 4.14205 16.8352 4.14205 16.3125C4.14205 15.8011 4.3267 15.3636 4.69602 15C5.06534 14.6364 5.50568 14.4545 6.01705 14.4545C6.52273 14.4545 6.96023 14.6364 7.32955 15C7.70455 15.3636 7.89205 15.8011 7.89205 16.3125C7.89205 16.6591 7.80398 16.9744 7.62784 17.2585C7.45739 17.5426 7.23011 17.7699 6.94602 17.9403C6.66761 18.1051 6.35795 18.1875 6.01705 18.1875Z" fill="#fff"/>
</svg>
