<svg width="41" height="41" viewBox="0 0 41 41" fill="none" xmlns="http://www.w3.org/2000/svg">
<path d="M20.8711 0.436218C9.82645 0.436218 0.871094 9.3353 0.871094 20.3105C0.871094 31.2858 9.82645 40.1849 20.8711 40.1849C31.9157 40.1849 40.8711 31.2858 40.8711 20.3105C40.8711 9.3353 31.9157 0.436218 20.8711 0.436218ZM30.4827 15.4174C30.4961 15.6259 30.4961 15.8433 30.4961 16.0562C30.4961 22.5686 25.505 30.0702 16.3845 30.0702C13.572 30.0702 10.9648 29.2584 8.76841 27.861C9.1702 27.9054 9.55413 27.9231 9.96484 27.9231C12.2863 27.9231 14.4202 27.1423 16.1211 25.8203C13.9425 25.776 12.1122 24.3564 11.4872 22.4044C12.2506 22.5153 12.9381 22.5153 13.7238 22.3157C12.602 22.0892 11.5937 21.4838 10.8703 20.6024C10.1468 19.7209 9.75273 18.6177 9.75502 17.4802V17.4181C10.4113 17.7863 11.1836 18.0126 11.9916 18.0436C11.3124 17.5938 10.7553 16.9843 10.3698 16.2693C9.98433 15.5542 9.78236 14.7557 9.78181 13.9445C9.78181 13.0262 10.0229 12.1878 10.4559 11.4603C11.701 12.9834 13.2547 14.2291 15.016 15.1164C16.7773 16.0038 18.7068 16.5129 20.6791 16.6107C19.9782 13.2614 22.4961 10.5508 25.5229 10.5508C26.9514 10.5508 28.2372 11.1453 29.1434 12.1035C30.264 11.895 31.3354 11.478 32.2907 10.919C31.9202 12.0591 31.1434 13.0218 30.1122 13.6296C31.1122 13.5231 32.0764 13.2481 32.9693 12.8621C32.2952 13.8469 31.4514 14.7209 30.4827 15.4174Z" fill="white"/>
</svg>
